M48
;DRILL file {KiCad (5.0.2)-1} date 02-Apr-19 6:32:06 PM
;FORMAT={3:3/ absolute / metric / suppress leading zeros}
FMAT,2
METRIC,TZ
T1C0.762
T2C1.000
T3C1.016
T4C1.100
T5C3.200
%
G90
G05
T1
X145415Y-73660
X145415Y-76200
X145415Y-78740
X145415Y-81280
X145415Y-83820
X145415Y-86360
X145415Y-88900
X145415Y-91440
X145415Y-93980
X145415Y-96520
X145415Y-99060
X145415Y-101600
X145415Y-104140
X145415Y-106680
X165735Y-73660
X165735Y-76200
X165735Y-78740
X165735Y-81280
X165735Y-83820
X165735Y-86360
X165735Y-88900
X165735Y-91440
X165735Y-93980
X165735Y-96520
X165735Y-99060
X165735Y-101600
X165735Y-104140
X165735Y-106680
T2
X123825Y-98425
X188595Y-97790
X188595Y-100330
X191135Y-97790
X191135Y-100330
X193675Y-97790
X193675Y-100330
X188595Y-74930
X188595Y-77470
X191135Y-74930
X191135Y-77470
X193675Y-74930
X193675Y-77470
X123825Y-127000
X123825Y-129540
X123825Y-132080
X123825Y-134620
X123825Y-137160
X123825Y-139700
X123825Y-142240
X123825Y-144780
X150495Y-127000
X153035Y-127000
X155575Y-127000
X158115Y-127000
X160655Y-127000
X173355Y-73660
X173355Y-76200
X173355Y-78740
X173355Y-81280
X173355Y-83820
X173355Y-86360
X173355Y-88900
X173355Y-91440
X173355Y-93980
X173355Y-96520
X173355Y-99060
X173355Y-101600
X173355Y-104140
X173355Y-106680
X123825Y-105410
X123825Y-107950
X123825Y-110490
X123825Y-113030
X123825Y-115570
X123825Y-118110
X123825Y-120650
X188595Y-87630
X188595Y-90170
X191135Y-87630
X191135Y-90170
X193675Y-87630
X193675Y-90170
X137795Y-73660
X137795Y-76200
X137795Y-78740
X137795Y-81280
X137795Y-83820
X137795Y-86360
X137795Y-88900
X137795Y-91440
X137795Y-93980
X137795Y-96520
X137795Y-99060
X137795Y-101600
X137795Y-104140
X137795Y-106680
X155575Y-137160
X158115Y-137160
T3
X131445Y-81534
X131445Y-84074
X131445Y-86614
X131445Y-89154
X131445Y-94234
X131445Y-96774
X131445Y-99314
X131445Y-119634
X131445Y-122174
X131445Y-127254
X131445Y-129794
X131445Y-132334
X131445Y-134874
X131445Y-137414
X131445Y-139954
X131445Y-142494
X131445Y-145034
X136525Y-147574
X136525Y-150114
X139065Y-147574
X139065Y-150114
X141605Y-147574
X141605Y-150114
X144145Y-147574
X144145Y-150114
X146685Y-147574
X146685Y-150114
X149225Y-147574
X149225Y-150114
X151765Y-147574
X151765Y-150114
X154305Y-117221
X154305Y-119761
X154305Y-147574
X154305Y-150114
X156845Y-117221
X156845Y-119761
X156845Y-147574
X156845Y-150114
X159385Y-117221
X159385Y-119761
X159385Y-147574
X159385Y-150114
X161925Y-147574
X161925Y-150114
X164465Y-147574
X164465Y-150114
X167005Y-147574
X167005Y-150114
X169545Y-147574
X169545Y-150114
X172085Y-147574
X172085Y-150114
X174625Y-147574
X174625Y-150114
X177165Y-147574
X177165Y-150114
X179705Y-72390
X179705Y-74930
X179705Y-77470
X179705Y-99314
X179705Y-101854
X179705Y-104394
X179705Y-122174
X179705Y-124714
X179705Y-127254
X179705Y-129794
X179705Y-132334
X179705Y-134874
X179705Y-137414
X179705Y-139954
X179705Y-147574
X179705Y-150114
T4
X161290Y-78740
X175895Y-68034
X183484Y-114331
X183515Y-133350
X184150Y-107950
X184228Y-90220
X186055Y-74930
X186055Y-98425
X186055Y-100665
X186118Y-88328
X187325Y-124460
X188595Y-80645
X123825Y-85725
X123825Y-88265
X123825Y-102870
X123825Y-95885
X131445Y-91694
X131445Y-104394
X131445Y-106934
X131445Y-109474
X131445Y-112014
X131445Y-114554
X131445Y-117094
X179705Y-80010
X179705Y-82550
X179705Y-85090
X179705Y-87630
X179705Y-90170
X179705Y-92710
X179705Y-95250
X179705Y-106934
X179705Y-109474
X179705Y-112014
X179705Y-114554
X179705Y-117094
X124460Y-73660
X124460Y-76200
T5
X131445Y-67564
X131445Y-150114
X136525Y-119634
X164465Y-119634
X179705Y-68834
X179705Y-143764
T0
M30
